# Blender 3.6.11
# www.blender.org
mtllib gerbang.mtl
o Cube
v 0.200000 2.500000 1.697447
v 0.200000 -0.500000 1.697447
v 0.200000 2.500000 1.864809
v 0.200000 -0.500000 1.864809
v -0.200000 2.500000 1.697447
v -0.200000 -0.500000 1.697447
v -0.200000 2.500000 1.864809
v -0.200000 -0.500000 1.864809
vn -0.0000 1.0000 -0.0000
vn -0.0000 -0.0000 1.0000
vn -1.0000 -0.0000 -0.0000
vn -0.0000 -1.0000 -0.0000
vn 1.0000 -0.0000 -0.0000
vn -0.0000 -0.0000 -1.0000
vt 0.625000 0.500000
vt 0.875000 0.500000
vt 0.875000 0.750000
vt 0.625000 0.750000
vt 0.375000 0.750000
vt 0.625000 1.000000
vt 0.375000 1.000000
vt 0.375000 0.000000
vt 0.625000 0.000000
vt 0.625000 0.250000
vt 0.375000 0.250000
vt 0.125000 0.500000
vt 0.375000 0.500000
vt 0.125000 0.750000
s 0
usemtl Material
f 1/1/1 5/2/1 7/3/1 3/4/1
f 4/5/2 3/4/2 7/6/2 8/7/2
f 8/8/3 7/9/3 5/10/3 6/11/3
f 6/12/4 2/13/4 4/5/4 8/14/4
f 2/13/5 1/1/5 3/4/5 4/5/5
f 6/11/6 5/10/6 1/1/6 2/13/6
o Cube.002
v 0.200000 2.500000 -0.121157
v 0.200000 -0.500000 -0.121157
v 0.200000 2.500000 0.046204
v 0.200000 -0.500000 0.046204
v -0.200000 2.500000 -0.121157
v -0.200000 -0.500000 -0.121157
v -0.200000 2.500000 0.046204
v -0.200000 -0.500000 0.046204
vn -0.0000 1.0000 -0.0000
vn -0.0000 -0.0000 1.0000
vn -1.0000 -0.0000 -0.0000
vn -0.0000 -1.0000 -0.0000
vn 1.0000 -0.0000 -0.0000
vn -0.0000 -0.0000 -1.0000
vt 0.625000 0.500000
vt 0.875000 0.500000
vt 0.875000 0.750000
vt 0.625000 0.750000
vt 0.375000 0.750000
vt 0.625000 1.000000
vt 0.375000 1.000000
vt 0.375000 0.000000
vt 0.625000 0.000000
vt 0.625000 0.250000
vt 0.375000 0.250000
vt 0.125000 0.500000
vt 0.375000 0.500000
vt 0.125000 0.750000
s 0
usemtl Material.002
f 9/15/7 13/16/7 15/17/7 11/18/7
f 12/19/8 11/18/8 15/20/8 16/21/8
f 16/22/9 15/23/9 13/24/9 14/25/9
f 14/26/10 10/27/10 12/19/10 16/28/10
f 10/27/11 9/15/11 11/18/11 12/19/11
f 14/25/12 13/24/12 9/15/12 10/27/12
o Cube.003
v 0.200000 2.307983 1.608839
v 0.200000 -0.492016 1.608839
v 0.200000 2.307983 1.656201
v 0.200000 -0.492016 1.656201
v -0.200000 2.307983 1.608839
v -0.200000 -0.492016 1.608839
v -0.200000 2.307983 1.656201
v -0.200000 -0.492016 1.656201
v 0.200000 2.307983 1.490435
v 0.200000 -0.492016 1.490435
v 0.200000 2.307983 1.537796
v 0.200000 -0.492016 1.537796
v -0.200000 2.307983 1.490435
v -0.200000 -0.492016 1.490435
v -0.200000 2.307983 1.537796
v -0.200000 -0.492016 1.537796
v 0.200000 2.307983 1.372030
v 0.200000 -0.492016 1.372030
v 0.200000 2.307983 1.419392
v 0.200000 -0.492016 1.419392
v -0.200000 2.307983 1.372030
v -0.200000 -0.492016 1.372030
v -0.200000 2.307983 1.419392
v -0.200000 -0.492016 1.419392
v 0.200000 2.307983 1.253625
v 0.200000 -0.492016 1.253625
v 0.200000 2.307983 1.300987
v 0.200000 -0.492016 1.300987
v -0.200000 2.307983 1.253625
v -0.200000 -0.492016 1.253625
v -0.200000 2.307983 1.300987
v -0.200000 -0.492016 1.300987
v 0.200000 2.307983 1.135220
v 0.200000 -0.492016 1.135220
v 0.200000 2.307983 1.182582
v 0.200000 -0.492016 1.182582
v -0.200000 2.307983 1.135220
v -0.200000 -0.492016 1.135220
v -0.200000 2.307983 1.182582
v -0.200000 -0.492016 1.182582
v 0.200000 2.307983 1.016815
v 0.200000 -0.492016 1.016815
v 0.200000 2.307983 1.064177
v 0.200000 -0.492016 1.064177
v -0.200000 2.307983 1.016815
v -0.200000 -0.492016 1.016815
v -0.200000 2.307983 1.064177
v -0.200000 -0.492016 1.064177
v 0.200000 2.307983 0.898410
v 0.200000 -0.492016 0.898410
v 0.200000 2.307983 0.945772
v 0.200000 -0.492016 0.945772
v -0.200000 2.307983 0.898410
v -0.200000 -0.492016 0.898410
v -0.200000 2.307983 0.945772
v -0.200000 -0.492016 0.945772
v 0.200000 2.307983 0.780006
v 0.200000 -0.492016 0.780006
v 0.200000 2.307983 0.827367
v 0.200000 -0.492016 0.827367
v -0.200000 2.307983 0.780006
v -0.200000 -0.492016 0.780006
v -0.200000 2.307983 0.827367
v -0.200000 -0.492016 0.827367
v 0.200000 2.307983 0.661601
v 0.200000 -0.492016 0.661601
v 0.200000 2.307983 0.708963
v 0.200000 -0.492016 0.708963
v -0.200000 2.307983 0.661601
v -0.200000 -0.492016 0.661601
v -0.200000 2.307983 0.708963
v -0.200000 -0.492016 0.708963
v 0.200000 2.307983 0.543196
v 0.200000 -0.492016 0.543196
v 0.200000 2.307983 0.590558
v 0.200000 -0.492016 0.590558
v -0.200000 2.307983 0.543196
v -0.200000 -0.492016 0.543196
v -0.200000 2.307983 0.590558
v -0.200000 -0.492016 0.590558
v 0.200000 2.307983 0.424791
v 0.200000 -0.492016 0.424791
v 0.200000 2.307983 0.472153
v 0.200000 -0.492016 0.472153
v -0.200000 2.307983 0.424791
v -0.200000 -0.492016 0.424791
v -0.200000 2.307983 0.472153
v -0.200000 -0.492016 0.472153
v 0.200000 2.307983 0.306386
v 0.200000 -0.492016 0.306386
v 0.200000 2.307983 0.353748
v 0.200000 -0.492016 0.353748
v -0.200000 2.307983 0.306386
v -0.200000 -0.492016 0.306386
v -0.200000 2.307983 0.353748
v -0.200000 -0.492016 0.353748
v 0.200000 2.307983 0.187981
v 0.200000 -0.492016 0.187981
v 0.200000 2.307983 0.235343
v 0.200000 -0.492016 0.235343
v -0.200000 2.307983 0.187981
v -0.200000 -0.492016 0.187981
v -0.200000 2.307983 0.235343
v -0.200000 -0.492016 0.235343
v 0.200000 2.307983 0.069577
v 0.200000 -0.492016 0.069577
v 0.200000 2.307983 0.116938
v 0.200000 -0.492016 0.116938
v -0.200000 2.307983 0.069577
v -0.200000 -0.492016 0.069577
v -0.200000 2.307983 0.116938
v -0.200000 -0.492016 0.116938
vn -0.0000 1.0000 -0.0000
vn -0.0000 -0.0000 1.0000
vn -1.0000 -0.0000 -0.0000
vn -0.0000 -1.0000 -0.0000
vn 1.0000 -0.0000 -0.0000
vn -0.0000 -0.0000 -1.0000
vt 0.625000 0.500000
vt 0.875000 0.500000
vt 0.875000 0.750000
vt 0.625000 0.750000
vt 0.375000 0.750000
vt 0.625000 1.000000
vt 0.375000 1.000000
vt 0.375000 0.000000
vt 0.625000 0.000000
vt 0.625000 0.250000
vt 0.375000 0.250000
vt 0.125000 0.500000
vt 0.375000 0.500000
vt 0.125000 0.750000
s 0
usemtl Material.003
f 17/29/13 21/30/13 23/31/13 19/32/13
f 20/33/14 19/32/14 23/34/14 24/35/14
f 24/36/15 23/37/15 21/38/15 22/39/15
f 22/40/16 18/41/16 20/33/16 24/42/16
f 18/41/17 17/29/17 19/32/17 20/33/17
f 22/39/18 21/38/18 17/29/18 18/41/18
f 25/29/13 29/30/13 31/31/13 27/32/13
f 28/33/14 27/32/14 31/34/14 32/35/14
f 32/36/15 31/37/15 29/38/15 30/39/15
f 30/40/16 26/41/16 28/33/16 32/42/16
f 26/41/17 25/29/17 27/32/17 28/33/17
f 30/39/18 29/38/18 25/29/18 26/41/18
f 33/29/13 37/30/13 39/31/13 35/32/13
f 36/33/14 35/32/14 39/34/14 40/35/14
f 40/36/15 39/37/15 37/38/15 38/39/15
f 38/40/16 34/41/16 36/33/16 40/42/16
f 34/41/17 33/29/17 35/32/17 36/33/17
f 38/39/18 37/38/18 33/29/18 34/41/18
f 41/29/13 45/30/13 47/31/13 43/32/13
f 44/33/14 43/32/14 47/34/14 48/35/14
f 48/36/15 47/37/15 45/38/15 46/39/15
f 46/40/16 42/41/16 44/33/16 48/42/16
f 42/41/17 41/29/17 43/32/17 44/33/17
f 46/39/18 45/38/18 41/29/18 42/41/18
f 49/29/13 53/30/13 55/31/13 51/32/13
f 52/33/14 51/32/14 55/34/14 56/35/14
f 56/36/15 55/37/15 53/38/15 54/39/15
f 54/40/16 50/41/16 52/33/16 56/42/16
f 50/41/17 49/29/17 51/32/17 52/33/17
f 54/39/18 53/38/18 49/29/18 50/41/18
f 57/29/13 61/30/13 63/31/13 59/32/13
f 60/33/14 59/32/14 63/34/14 64/35/14
f 64/36/15 63/37/15 61/38/15 62/39/15
f 62/40/16 58/41/16 60/33/16 64/42/16
f 58/41/17 57/29/17 59/32/17 60/33/17
f 62/39/18 61/38/18 57/29/18 58/41/18
f 65/29/13 69/30/13 71/31/13 67/32/13
f 68/33/14 67/32/14 71/34/14 72/35/14
f 72/36/15 71/37/15 69/38/15 70/39/15
f 70/40/16 66/41/16 68/33/16 72/42/16
f 66/41/17 65/29/17 67/32/17 68/33/17
f 70/39/18 69/38/18 65/29/18 66/41/18
f 73/29/13 77/30/13 79/31/13 75/32/13
f 76/33/14 75/32/14 79/34/14 80/35/14
f 80/36/15 79/37/15 77/38/15 78/39/15
f 78/40/16 74/41/16 76/33/16 80/42/16
f 74/41/17 73/29/17 75/32/17 76/33/17
f 78/39/18 77/38/18 73/29/18 74/41/18
f 81/29/13 85/30/13 87/31/13 83/32/13
f 84/33/14 83/32/14 87/34/14 88/35/14
f 88/36/15 87/37/15 85/38/15 86/39/15
f 86/40/16 82/41/16 84/33/16 88/42/16
f 82/41/17 81/29/17 83/32/17 84/33/17
f 86/39/18 85/38/18 81/29/18 82/41/18
f 89/29/13 93/30/13 95/31/13 91/32/13
f 92/33/14 91/32/14 95/34/14 96/35/14
f 96/36/15 95/37/15 93/38/15 94/39/15
f 94/40/16 90/41/16 92/33/16 96/42/16
f 90/41/17 89/29/17 91/32/17 92/33/17
f 94/39/18 93/38/18 89/29/18 90/41/18
f 97/29/13 101/30/13 103/31/13 99/32/13
f 100/33/14 99/32/14 103/34/14 104/35/14
f 104/36/15 103/37/15 101/38/15 102/39/15
f 102/40/16 98/41/16 100/33/16 104/42/16
f 98/41/17 97/29/17 99/32/17 100/33/17
f 102/39/18 101/38/18 97/29/18 98/41/18
f 105/29/13 109/30/13 111/31/13 107/32/13
f 108/33/14 107/32/14 111/34/14 112/35/14
f 112/36/15 111/37/15 109/38/15 110/39/15
f 110/40/16 106/41/16 108/33/16 112/42/16
f 106/41/17 105/29/17 107/32/17 108/33/17
f 110/39/18 109/38/18 105/29/18 106/41/18
f 113/29/13 117/30/13 119/31/13 115/32/13
f 116/33/14 115/32/14 119/34/14 120/35/14
f 120/36/15 119/37/15 117/38/15 118/39/15
f 118/40/16 114/41/16 116/33/16 120/42/16
f 114/41/17 113/29/17 115/32/17 116/33/17
f 118/39/18 117/38/18 113/29/18 114/41/18
f 121/29/13 125/30/13 127/31/13 123/32/13
f 124/33/14 123/32/14 127/34/14 128/35/14
f 128/36/15 127/37/15 125/38/15 126/39/15
f 126/40/16 122/41/16 124/33/16 128/42/16
f 122/41/17 121/29/17 123/32/17 124/33/17
f 126/39/18 125/38/18 121/29/18 122/41/18
o Cube.004
v 0.200000 1.562388 1.808120
v 0.200000 1.562388 -0.051880
v 0.200000 1.395026 1.808120
v 0.200000 1.395026 -0.051880
v -0.200000 1.562388 1.808120
v -0.200000 1.562388 -0.051880
v -0.200000 1.395026 1.808120
v -0.200000 1.395026 -0.051880
v 0.200000 0.742315 1.808120
v 0.200000 0.742315 -0.051880
v 0.200000 0.574953 1.808120
v 0.200000 0.574953 -0.051880
v -0.200000 0.742315 1.808120
v -0.200000 0.742315 -0.051880
v -0.200000 0.574953 1.808120
v -0.200000 0.574953 -0.051880
vn -0.0000 -0.0000 1.0000
vn -0.0000 -1.0000 -0.0000
vn -1.0000 -0.0000 -0.0000
vn -0.0000 -0.0000 -1.0000
vn 1.0000 -0.0000 -0.0000
vn -0.0000 1.0000 -0.0000
vt 0.625000 0.500000
vt 0.875000 0.500000
vt 0.875000 0.750000
vt 0.625000 0.750000
vt 0.375000 0.750000
vt 0.625000 1.000000
vt 0.375000 1.000000
vt 0.375000 0.000000
vt 0.625000 0.000000
vt 0.625000 0.250000
vt 0.375000 0.250000
vt 0.125000 0.500000
vt 0.375000 0.500000
vt 0.125000 0.750000
s 0
usemtl Material.004
f 129/43/19 133/44/19 135/45/19 131/46/19
f 132/47/20 131/46/20 135/48/20 136/49/20
f 136/50/21 135/51/21 133/52/21 134/53/21
f 134/54/22 130/55/22 132/47/22 136/56/22
f 130/55/23 129/43/23 131/46/23 132/47/23
f 134/53/24 133/52/24 129/43/24 130/55/24
f 137/43/19 141/44/19 143/45/19 139/46/19
f 140/47/20 139/46/20 143/48/20 144/49/20
f 144/50/21 143/51/21 141/52/21 142/53/21
f 142/54/22 138/55/22 140/47/22 144/56/22
f 138/55/23 137/43/23 139/46/23 140/47/23
f 142/53/24 141/52/24 137/43/24 138/55/24
